<svg xmlns="http://www.w3.org/2000/svg" viewBox="0 0 1100 365" width="1100" height="365" role="img" aria-label="Contribution history for aspire488: 575 contributions in the past 12 months, through 2026-09-24."><title>Contribution history</title><desc>Rolling contribution history for aspire488 through 2026-09-24.</desc><rect width="1100" height="365" rx="12" fill="#ffffff"/><rect x="1" y="1" width="1098" height="363" rx="11" fill="none" stroke="#d0d7de"/><text x="22" y="30" fill="#1f2328" font-family="Arial,sans-serif" font-size="17" font-weight="700">Contribution history</text><text x="22" y="49" fill="#656d76" font-family="Arial,sans-serif" font-size="10">ROLLING 12 MONTHS • THROUGH 2026-09-24</text><text x="42" y="78" fill="#656d76" font-family="Arial,sans-serif" font-size="10">Sep</text><text x="78" y="78" fill="#656d76" font-family="Arial,sans-serif" font-size="10">Oct</text><text x="150" y="78" fill="#656d76" font-family="Arial,sans-serif" font-size="10">Nov</text><text x="240" y="78" fill="#656d76" font-family="Arial,sans-serif" font-size="10">Dec</text><text x="312" y="78" fill="#656d76" font-family="Arial,sans-serif" font-size="10">Jan</text><text x="384" y="78" fill="#656d76" font-family="Arial,sans-serif" font-size="10">Feb</text><text x="456" y="78" fill="#656d76" font-family="Arial,sans-serif" font-size="10">Mar</text><text x="546" y="78" fill="#656d76" font-family="Arial,sans-serif" font-size="10">Apr</text><text x="618" y="78" fill="#656d76" font-family="Arial,sans-serif" font-size="10">May</text><text x="708" y="78" fill="#656d76" font-family="Arial,sans-serif" font-size="10">Jun</text><text x="780" y="78" fill="#656d76" font-family="Arial,sans-serif" font-size="10">Jul</text><text x="852" y="78" fill="#656d76" font-family="Arial,sans-serif" font-size="10">Aug</text><text x="942" y="78" fill="#656d76" font-family="Arial,sans-serif" font-size="10">Sep</text><rect x="42" y="102" width="15" height="15" rx="3" fill="#ebedf0"/><rect x="42" y="120" width="15" height="15" rx="3" fill="#ebedf0"/><rect x="42" y="138" width="15" height="15" rx="3" fill="#ebedf0"/><rect x="42" y="156" width="15" height="15" rx="3" fill="#ebedf0"/><rect x="42" y="174" width="15" height="15" rx="3" fill="#ebedf0"/><rect x="42" y="192" width="15" height="15" rx="3" fill="#ebedf0"/><rect x="42" y="210" width="15" height="15" rx="3" fill="#ebedf0"/><rect x="60" y="102" width="15" height="15" rx="3" fill="#ebedf0"/><rect x="60" y="120" width="15" height="15" rx="3" fill="#ebedf0"/><rect x="60" y="138" width="15" height="15" rx="3" fill="#ebedf0"/><rect x="60" y="156" width="15" height="15" rx="3" fill="#ebedf0"/><rect x="60" y="174" width="15" height="15" rx="3" fill="#ebedf0"/><rect x="60" y="192" width="15" height="15" rx="3" fill="#ebedf0"/><rect x="60" y="210" width="15" height="15" rx="3" fill="#ebedf0"/><rect x="78" y="102" width="15" height="15" rx="3" fill="#ebedf0"/><rect x="78" y="120" width="15" height="15" rx="3" fill="#ebedf0"/><rect x="78" y="138" width="15" height="15" rx="3" fill="#ebedf0"/><rect x="78" y="156" width="15" height="15" rx="3" fill="#ebedf0"/><rect x="78" y="174" width="15" height="15" rx="3" fill="#ebedf0"/><rect x="78" y="192" width="15" height="15" rx="3" fill="#ebedf0"/><rect x="78" y="210" width="15" height="15" rx="3" fill="#ebedf0"/><rect x="96" y="102" width="15" height="15" rx="3" fill="#ebedf0"/><rect x="96" y="120" width="15" height="15" rx="3" fill="#ebedf0"/><rect x="96" y="138" width="15" height="15" rx="3" fill="#ebedf0"/><rect x="96" y="156" width="15" height="15" rx="3" fill="#ebedf0"/><rect x="96" y="174" width="15" height="15" rx="3" fill="#ebedf0"/><rect x="96" y="192" width="15" height="15" rx="3" fill="#ebedf0"/><rect x="96" y="210" width="15" height="15" rx="3" fill="#ebedf0"/><rect x="114" y="102" width="15" height="15" rx="3" fill="#ebedf0"/><rect x="114" y="120" width="15" height="15" rx="3" fill="#ebedf0"/><rect x="114" y="138" width="15" height="15" rx="3" fill="#ebedf0"/><rect x="114" y="156" width="15" height="15" rx="3" fill="#ebedf0"/><rect x="114" y="174" width="15" height="15" rx="3" fill="#ebedf0"/><rect x="114" y="192" width="15" height="15" rx="3" fill="#ebedf0"/><rect x="114" y="210" width="15" height="15" rx="3" fill="#ebedf0"/><rect x="132" y="102" width="15" height="15" rx="3" fill="#ebedf0"/><rect x="132" y="120" width="15" height="15" rx="3" fill="#ebedf0"/><rect x="132" y="138" width="15" height="15" rx="3" fill="#ebedf0"/><rect x="132" y="156" width="15" height="15" rx="3" fill="#ebedf0"/><rect x="132" y="174" width="15" height="15" rx="3" fill="#ebedf0"/><rect x="132" y="192" width="15" height="15" rx="3" fill="#ebedf0"/><rect x="132" y="210" width="15" height="15" rx="3" fill="#ebedf0"/><rect x="150" y="102" width="15" height="15" rx="3" fill="#ebedf0"/><rect x="150" y="120" width="15" height="15" rx="3" fill="#ebedf0"/><rect x="150" y="138" width="15" height="15" rx="3" fill="#ebedf0"/><rect x="150" y="156" width="15" height="15" rx="3" fill="#ebedf0"/><rect x="150" y="174" width="15" height="15" rx="3" fill="#ebedf0"/><rect x="150" y="192" width="15" height="15" rx="3" fill="#ebedf0"/><rect x="150" y="210" width="15" height="15" rx="3" fill="#ebedf0"/><rect x="168" y="102" width="15" height="15" rx="3" fill="#ebedf0"/><rect x="168" y="120" width="15" height="15" rx="3" fill="#ebedf0"/><rect x="168" y="138" width="15" height="15" rx="3" fill="#ebedf0"/><rect x="168" y="156" width="15" height="15" rx="3" fill="#ebedf0"/><rect x="168" y="174" width="15" height="15" rx="3" fill="#ebedf0"/><rect x="168" y="192" width="15" height="15" rx="3" fill="#ebedf0"/><rect x="168" y="210" width="15" height="15" rx="3" fill="#ebedf0"/><rect x="186" y="102" width="15" height="15" rx="3" fill="#ebedf0"/><rect x="186" y="120" width="15" height="15" rx="3" fill="#ebedf0"/><rect x="186" y="138" width="15" height="15" rx="3" fill="#ebedf0"/><rect x="186" y="156" width="15" height="15" rx="3" fill="#ebedf0"/><rect x="186" y="174" width="15" height="15" rx="3" fill="#ebedf0"/><rect x="186" y="192" width="15" height="15" rx="3" fill="#ebedf0"/><rect x="186" y="210" width="15" height="15" rx="3" fill="#ebedf0"/><rect x="204" y="102" width="15" height="15" rx="3" fill="#ebedf0"/><rect x="204" y="120" width="15" height="15" rx="3" fill="#ebedf0"/><rect x="204" y="138" width="15" height="15" rx="3" fill="#ebedf0"/><rect x="204" y="156" width="15" height="15" rx="3" fill="#ebedf0"/><rect x="204" y="174" width="15" height="15" rx="3" fill="#ebedf0"/><rect x="204" y="192" width="15" height="15" rx="3" fill="#ebedf0"/><rect x="204" y="210" width="15" height="15" rx="3" fill="#ebedf0"/><rect x="222" y="102" width="15" height="15" rx="3" fill="#9be9a8"/><rect x="222" y="120" width="15" height="15" rx="3" fill="#ebedf0"/><rect x="222" y="138" width="15" height="15" rx="3" fill="#ebedf0"/><rect x="222" y="156" width="15" height="15" rx="3" fill="#ebedf0"/><rect x="222" y="174" width="15" height="15" rx="3" fill="#ebedf0"/><rect x="222" y="192" width="15" height="15" rx="3" fill="#ebedf0"/><rect x="222" y="210" width="15" height="15" rx="3" fill="#ebedf0"/><rect x="240" y="102" width="15" height="15" rx="3" fill="#ebedf0"/><rect x="240" y="120" width="15" height="15" rx="3" fill="#ebedf0"/><rect x="240" y="138" width="15" height="15" rx="3" fill="#ebedf0"/><rect x="240" y="156" width="15" height="15" rx="3" fill="#ebedf0"/><rect x="240" y="174" width="15" height="15" rx="3" fill="#ebedf0"/><rect x="240" y="192" width="15" height="15" rx="3" fill="#ebedf0"/><rect x="240" y="210" width="15" height="15" rx="3" fill="#ebedf0"/><rect x="258" y="102" width="15" height="15" rx="3" fill="#ebedf0"/><rect x="258" y="120" width="15" height="15" rx="3" fill="#ebedf0"/><rect x="258" y="138" width="15" height="15" rx="3" fill="#ebedf0"/><rect x="258" y="156" width="15" height="15" rx="3" fill="#ebedf0"/><rect x="258" y="174" width="15" height="15" rx="3" fill="#ebedf0"/><rect x="258" y="192" width="15" height="15" rx="3" fill="#ebedf0"/><rect x="258" y="210" width="15" height="15" rx="3" fill="#ebedf0"/><rect x="276" y="102" width="15" height="15" rx="3" fill="#ebedf0"/><rect x="276" y="120" width="15" height="15" rx="3" fill="#ebedf0"/><rect x="276" y="138" width="15" height="15" rx="3" fill="#ebedf0"/><rect x="276" y="156" width="15" height="15" rx="3" fill="#ebedf0"/><rect x="276" y="174" width="15" height="15" rx="3" fill="#ebedf0"/><rect x="276" y="192" width="15" height="15" rx="3" fill="#ebedf0"/><rect x="276" y="210" width="15" height="15" rx="3" fill="#ebedf0"/><rect x="294" y="102" width="15" height="15" rx="3" fill="#ebedf0"/><rect x="294" y="120" width="15" height="15" rx="3" fill="#ebedf0"/><rect x="294" y="138" width="15" height="15" rx="3" fill="#ebedf0"/><rect x="294" y="156" width="15" height="15" rx="3" fill="#ebedf0"/><rect x="294" y="174" width="15" height="15" rx="3" fill="#ebedf0"/><rect x="294" y="192" width="15" height="15" rx="3" fill="#ebedf0"/><rect x="294" y="210" width="15" height="15" rx="3" fill="#ebedf0"/><rect x="312" y="102" width="15" height="15" rx="3" fill="#ebedf0"/><rect x="312" y="120" width="15" height="15" rx="3" fill="#ebedf0"/><rect x="312" y="138" width="15" height="15" rx="3" fill="#ebedf0"/><rect x="312" y="156" width="15" height="15" rx="3" fill="#ebedf0"/><rect x="312" y="174" width="15" height="15" rx="3" fill="#ebedf0"/><rect x="312" y="192" width="15" height="15" rx="3" fill="#ebedf0"/><rect x="312" y="210" width="15" height="15" rx="3" fill="#ebedf0"/><rect x="330" y="102" width="15" height="15" rx="3" fill="#ebedf0"/><rect x="330" y="120" width="15" height="15" rx="3" fill="#ebedf0"/><rect x="330" y="138" width="15" height="15" rx="3" fill="#ebedf0"/><rect x="330" y="156" width="15" height="15" rx="3" fill="#ebedf0"/><rect x="330" y="174" width="15" height="15" rx="3" fill="#ebedf0"/><rect x="330" y="192" width="15" height="15" rx="3" fill="#ebedf0"/><rect x="330" y="210" width="15" height="15" rx="3" fill="#ebedf0"/><rect x="348" y="102" width="15" height="15" rx="3" fill="#ebedf0"/><rect x="348" y="120" width="15" height="15" rx="3" fill="#ebedf0"/><rect x="348" y="138" width="15" height="15" rx="3" fill="#ebedf0"/><rect x="348" y="156" width="15" height="15" rx="3" fill="#ebedf0"/><rect x="348" y="174" width="15" height="15" rx="3" fill="#ebedf0"/><rect x="348" y="192" width="15" height="15" rx="3" fill="#ebedf0"/><rect x="348" y="210" width="15" height="15" rx="3" fill="#ebedf0"/><rect x="366" y="102" width="15" height="15" rx="3" fill="#ebedf0"/><rect x="366" y="120" width="15" height="15" rx="3" fill="#ebedf0"/><rect x="366" y="138" width="15" height="15" rx="3" fill="#ebedf0"/><rect x="366" y="156" width="15" height="15" rx="3" fill="#ebedf0"/><rect x="366" y="174" width="15" height="15" rx="3" fill="#ebedf0"/><rect x="366" y="192" width="15" height="15" rx="3" fill="#ebedf0"/><rect x="366" y="210" width="15" height="15" rx="3" fill="#ebedf0"/><rect x="384" y="102" width="15" height="15" rx="3" fill="#ebedf0"/><rect x="384" y="120" width="15" height="15" rx="3" fill="#ebedf0"/><rect x="384" y="138" width="15" height="15" rx="3" fill="#ebedf0"/><rect x="384" y="156" width="15" height="15" rx="3" fill="#ebedf0"/><rect x="384" y="174" width="15" height="15" rx="3" fill="#ebedf0"/><rect x="384" y="192" width="15" height="15" rx="3" fill="#ebedf0"/><rect x="384" y="210" width="15" height="15" rx="3" fill="#ebedf0"/><rect x="402" y="102" width="15" height="15" rx="3" fill="#ebedf0"/><rect x="402" y="120" width="15" height="15" rx="3" fill="#ebedf0"/><rect x="402" y="138" width="15" height="15" rx="3" fill="#ebedf0"/><rect x="402" y="156" width="15" height="15" rx="3" fill="#ebedf0"/><rect x="402" y="174" width="15" height="15" rx="3" fill="#ebedf0"/><rect x="402" y="192" width="15" height="15" rx="3" fill="#ebedf0"/><rect x="402" y="210" width="15" height="15" rx="3" fill="#ebedf0"/><rect x="420" y="102" width="15" height="15" rx="3" fill="#ebedf0"/><rect x="420" y="120" width="15" height="15" rx="3" fill="#ebedf0"/><rect x="420" y="138" width="15" height="15" rx="3" fill="#ebedf0"/><rect x="420" y="156" width="15" height="15" rx="3" fill="#ebedf0"/><rect x="420" y="174" width="15" height="15" rx="3" fill="#ebedf0"/><rect x="420" y="192" width="15" height="15" rx="3" fill="#ebedf0"/><rect x="420" y="210" width="15" height="15" rx="3" fill="#ebedf0"/><rect x="438" y="102" width="15" height="15" rx="3" fill="#ebedf0"/><rect x="438" y="120" width="15" height="15" rx="3" fill="#ebedf0"/><rect x="438" y="138" width="15" height="15" rx="3" fill="#ebedf0"/><rect x="438" y="156" width="15" height="15" rx="3" fill="#ebedf0"/><rect x="438" y="174" width="15" height="15" rx="3" fill="#ebedf0"/><rect x="438" y="192" width="15" height="15" rx="3" fill="#ebedf0"/><rect x="438" y="210" width="15" height="15" rx="3" fill="#ebedf0"/><rect x="456" y="102" width="15" height="15" rx="3" fill="#ebedf0"/><rect x="456" y="120" width="15" height="15" rx="3" fill="#ebedf0"/><rect x="456" y="138" width="15" height="15" rx="3" fill="#ebedf0"/><rect x="456" y="156" width="15" height="15" rx="3" fill="#ebedf0"/><rect x="456" y="174" width="15" height="15" rx="3" fill="#ebedf0"/><rect x="456" y="192" width="15" height="15" rx="3" fill="#ebedf0"/><rect x="456" y="210" width="15" height="15" rx="3" fill="#ebedf0"/><rect x="474" y="102" width="15" height="15" rx="3" fill="#ebedf0"/><rect x="474" y="120" width="15" height="15" rx="3" fill="#ebedf0"/><rect x="474" y="138" width="15" height="15" rx="3" fill="#ebedf0"/><rect x="474" y="156" width="15" height="15" rx="3" fill="#ebedf0"/><rect x="474" y="174" width="15" height="15" rx="3" fill="#ebedf0"/><rect x="474" y="192" width="15" height="15" rx="3" fill="#ebedf0"/><rect x="474" y="210" width="15" height="15" rx="3" fill="#ebedf0"/><rect x="492" y="102" width="15" height="15" rx="3" fill="#ebedf0"/><rect x="492" y="120" width="15" height="15" rx="3" fill="#ebedf0"/><rect x="492" y="138" width="15" height="15" rx="3" fill="#ebedf0"/><rect x="492" y="156" width="15" height="15" rx="3" fill="#9be9a8"/><rect x="492" y="174" width="15" height="15" rx="3" fill="#ebedf0"/><rect x="492" y="192" width="15" height="15" rx="3" fill="#ebedf0"/><rect x="492" y="210" width="15" height="15" rx="3" fill="#ebedf0"/><rect x="510" y="102" width="15" height="15" rx="3" fill="#ebedf0"/><rect x="510" y="120" width="15" height="15" rx="3" fill="#ebedf0"/><rect x="510" y="138" width="15" height="15" rx="3" fill="#ebedf0"/><rect x="510" y="156" width="15" height="15" rx="3" fill="#ebedf0"/><rect x="510" y="174" width="15" height="15" rx="3" fill="#ebedf0"/><rect x="510" y="192" width="15" height="15" rx="3" fill="#ebedf0"/><rect x="510" y="210" width="15" height="15" rx="3" fill="#ebedf0"/><rect x="528" y="102" width="15" height="15" rx="3" fill="#ebedf0"/><rect x="528" y="120" width="15" height="15" rx="3" fill="#ebedf0"/><rect x="528" y="138" width="15" height="15" rx="3" fill="#ebedf0"/><rect x="528" y="156" width="15" height="15" rx="3" fill="#ebedf0"/><rect x="528" y="174" width="15" height="15" rx="3" fill="#ebedf0"/><rect x="528" y="192" width="15" height="15" rx="3" fill="#ebedf0"/><rect x="528" y="210" width="15" height="15" rx="3" fill="#ebedf0"/><rect x="546" y="102" width="15" height="15" rx="3" fill="#ebedf0"/><rect x="546" y="120" width="15" height="15" rx="3" fill="#ebedf0"/><rect x="546" y="138" width="15" height="15" rx="3" fill="#ebedf0"/><rect x="546" y="156" width="15" height="15" rx="3" fill="#ebedf0"/><rect x="546" y="174" width="15" height="15" rx="3" fill="#ebedf0"/><rect x="546" y="192" width="15" height="15" rx="3" fill="#ebedf0"/><rect x="546" y="210" width="15" height="15" rx="3" fill="#ebedf0"/><rect x="564" y="102" width="15" height="15" rx="3" fill="#ebedf0"/><rect x="564" y="120" width="15" height="15" rx="3" fill="#ebedf0"/><rect x="564" y="138" width="15" height="15" rx="3" fill="#ebedf0"/><rect x="564" y="156" width="15" height="15" rx="3" fill="#9be9a8"/><rect x="564" y="174" width="15" height="15" rx="3" fill="#40c463"/><rect x="564" y="192" width="15" height="15" rx="3" fill="#9be9a8"/><rect x="564" y="210" width="15" height="15" rx="3" fill="#ebedf0"/><rect x="582" y="102" width="15" height="15" rx="3" fill="#ebedf0"/><rect x="582" y="120" width="15" height="15" rx="3" fill="#ebedf0"/><rect x="582" y="138" width="15" height="15" rx="3" fill="#ebedf0"/><rect x="582" y="156" width="15" height="15" rx="3" fill="#ebedf0"/><rect x="582" y="174" width="15" height="15" rx="3" fill="#ebedf0"/><rect x="582" y="192" width="15" height="15" rx="3" fill="#ebedf0"/><rect x="582" y="210" width="15" height="15" rx="3" fill="#ebedf0"/><rect x="600" y="102" width="15" height="15" rx="3" fill="#ebedf0"/><rect x="600" y="120" width="15" height="15" rx="3" fill="#ebedf0"/><rect x="600" y="138" width="15" height="15" rx="3" fill="#ebedf0"/><rect x="600" y="156" width="15" height="15" rx="3" fill="#ebedf0"/><rect x="600" y="174" width="15" height="15" rx="3" fill="#ebedf0"/><rect x="600" y="192" width="15" height="15" rx="3" fill="#ebedf0"/><rect x="600" y="210" width="15" height="15" rx="3" fill="#ebedf0"/><rect x="618" y="102" width="15" height="15" rx="3" fill="#ebedf0"/><rect x="618" y="120" width="15" height="15" rx="3" fill="#ebedf0"/><rect x="618" y="138" width="15" height="15" rx="3" fill="#ebedf0"/><rect x="618" y="156" width="15" height="15" rx="3" fill="#ebedf0"/><rect x="618" y="174" width="15" height="15" rx="3" fill="#ebedf0"/><rect x="618" y="192" width="15" height="15" rx="3" fill="#ebedf0"/><rect x="618" y="210" width="15" height="15" rx="3" fill="#ebedf0"/><rect x="636" y="102" width="15" height="15" rx="3" fill="#ebedf0"/><rect x="636" y="120" width="15" height="15" rx="3" fill="#ebedf0"/><rect x="636" y="138" width="15" height="15" rx="3" fill="#ebedf0"/><rect x="636" y="156" width="15" height="15" rx="3" fill="#ebedf0"/><rect x="636" y="174" width="15" height="15" rx="3" fill="#ebedf0"/><rect x="636" y="192" width="15" height="15" rx="3" fill="#ebedf0"/><rect x="636" y="210" width="15" height="15" rx="3" fill="#ebedf0"/><rect x="654" y="102" width="15" height="15" rx="3" fill="#ebedf0"/><rect x="654" y="120" width="15" height="15" rx="3" fill="#ebedf0"/><rect x="654" y="138" width="15" height="15" rx="3" fill="#ebedf0"/><rect x="654" y="156" width="15" height="15" rx="3" fill="#ebedf0"/><rect x="654" y="174" width="15" height="15" rx="3" fill="#ebedf0"/><rect x="654" y="192" width="15" height="15" rx="3" fill="#ebedf0"/><rect x="654" y="210" width="15" height="15" rx="3" fill="#ebedf0"/><rect x="672" y="102" width="15" height="15" rx="3" fill="#ebedf0"/><rect x="672" y="120" width="15" height="15" rx="3" fill="#ebedf0"/><rect x="672" y="138" width="15" height="15" rx="3" fill="#ebedf0"/><rect x="672" y="156" width="15" height="15" rx="3" fill="#ebedf0"/><rect x="672" y="174" width="15" height="15" rx="3" fill="#ebedf0"/><rect x="672" y="192" width="15" height="15" rx="3" fill="#ebedf0"/><rect x="672" y="210" width="15" height="15" rx="3" fill="#ebedf0"/><rect x="690" y="102" width="15" height="15" rx="3" fill="#ebedf0"/><rect x="690" y="120" width="15" height="15" rx="3" fill="#ebedf0"/><rect x="690" y="138" width="15" height="15" rx="3" fill="#ebedf0"/><rect x="690" y="156" width="15" height="15" rx="3" fill="#ebedf0"/><rect x="690" y="174" width="15" height="15" rx="3" fill="#ebedf0"/><rect x="690" y="192" width="15" height="15" rx="3" fill="#ebedf0"/><rect x="690" y="210" width="15" height="15" rx="3" fill="#ebedf0"/><rect x="708" y="102" width="15" height="15" rx="3" fill="#ebedf0"/><rect x="708" y="120" width="15" height="15" rx="3" fill="#ebedf0"/><rect x="708" y="138" width="15" height="15" rx="3" fill="#ebedf0"/><rect x="708" y="156" width="15" height="15" rx="3" fill="#ebedf0"/><rect x="708" y="174" width="15" height="15" rx="3" fill="#ebedf0"/><rect x="708" y="192" width="15" height="15" rx="3" fill="#ebedf0"/><rect x="708" y="210" width="15" height="15" rx="3" fill="#ebedf0"/><rect x="726" y="102" width="15" height="15" rx="3" fill="#ebedf0"/><rect x="726" y="120" width="15" height="15" rx="3" fill="#ebedf0"/><rect x="726" y="138" width="15" height="15" rx="3" fill="#ebedf0"/><rect x="726" y="156" width="15" height="15" rx="3" fill="#ebedf0"/><rect x="726" y="174" width="15" height="15" rx="3" fill="#ebedf0"/><rect x="726" y="192" width="15" height="15" rx="3" fill="#ebedf0"/><rect x="726" y="210" width="15" height="15" rx="3" fill="#ebedf0"/><rect x="744" y="102" width="15" height="15" rx="3" fill="#9be9a8"/><rect x="744" y="120" width="15" height="15" rx="3" fill="#ebedf0"/><rect x="744" y="138" width="15" height="15" rx="3" fill="#ebedf0"/><rect x="744" y="156" width="15" height="15" rx="3" fill="#ebedf0"/><rect x="744" y="174" width="15" height="15" rx="3" fill="#9be9a8"/><rect x="744" y="192" width="15" height="15" rx="3" fill="#40c463"/><rect x="744" y="210" width="15" height="15" rx="3" fill="#ebedf0"/><rect x="762" y="102" width="15" height="15" rx="3" fill="#9be9a8"/><rect x="762" y="120" width="15" height="15" rx="3" fill="#ebedf0"/><rect x="762" y="138" width="15" height="15" rx="3" fill="#ebedf0"/><rect x="762" y="156" width="15" height="15" rx="3" fill="#ebedf0"/><rect x="762" y="174" width="15" height="15" rx="3" fill="#ebedf0"/><rect x="762" y="192" width="15" height="15" rx="3" fill="#ebedf0"/><rect x="762" y="210" width="15" height="15" rx="3" fill="#ebedf0"/><rect x="780" y="102" width="15" height="15" rx="3" fill="#ebedf0"/><rect x="780" y="120" width="15" height="15" rx="3" fill="#ebedf0"/><rect x="780" y="138" width="15" height="15" rx="3" fill="#ebedf0"/><rect x="780" y="156" width="15" height="15" rx="3" fill="#ebedf0"/><rect x="780" y="174" width="15" height="15" rx="3" fill="#ebedf0"/><rect x="780" y="192" width="15" height="15" rx="3" fill="#ebedf0"/><rect x="780" y="210" width="15" height="15" rx="3" fill="#ebedf0"/><rect x="798" y="102" width="15" height="15" rx="3" fill="#ebedf0"/><rect x="798" y="120" width="15" height="15" rx="3" fill="#ebedf0"/><rect x="798" y="138" width="15" height="15" rx="3" fill="#ebedf0"/><rect x="798" y="156" width="15" height="15" rx="3" fill="#9be9a8"/><rect x="798" y="174" width="15" height="15" rx="3" fill="#ebedf0"/><rect x="798" y="192" width="15" height="15" rx="3" fill="#9be9a8"/><rect x="798" y="210" width="15" height="15" rx="3" fill="#9be9a8"/><rect x="816" y="102" width="15" height="15" rx="3" fill="#ebedf0"/><rect x="816" y="120" width="15" height="15" rx="3" fill="#ebedf0"/><rect x="816" y="138" width="15" height="15" rx="3" fill="#ebedf0"/><rect x="816" y="156" width="15" height="15" rx="3" fill="#ebedf0"/><rect x="816" y="174" width="15" height="15" rx="3" fill="#9be9a8"/><rect x="816" y="192" width="15" height="15" rx="3" fill="#ebedf0"/><rect x="816" y="210" width="15" height="15" rx="3" fill="#9be9a8"/><rect x="834" y="102" width="15" height="15" rx="3" fill="#ebedf0"/><rect x="834" y="120" width="15" height="15" rx="3" fill="#9be9a8"/><rect x="834" y="138" width="15" height="15" rx="3" fill="#ebedf0"/><rect x="834" y="156" width="15" height="15" rx="3" fill="#ebedf0"/><rect x="834" y="174" width="15" height="15" rx="3" fill="#9be9a8"/><rect x="834" y="192" width="15" height="15" rx="3" fill="#9be9a8"/><rect x="834" y="210" width="15" height="15" rx="3" fill="#ebedf0"/><rect x="852" y="102" width="15" height="15" rx="3" fill="#ebedf0"/><rect x="852" y="120" width="15" height="15" rx="3" fill="#ebedf0"/><rect x="852" y="138" width="15" height="15" rx="3" fill="#ebedf0"/><rect x="852" y="156" width="15" height="15" rx="3" fill="#9be9a8"/><rect x="852" y="174" width="15" height="15" rx="3" fill="#ebedf0"/><rect x="852" y="192" width="15" height="15" rx="3" fill="#9be9a8"/><rect x="852" y="210" width="15" height="15" rx="3" fill="#9be9a8"/><rect x="870" y="102" width="15" height="15" rx="3" fill="#9be9a8"/><rect x="870" y="120" width="15" height="15" rx="3" fill="#9be9a8"/><rect x="870" y="138" width="15" height="15" rx="3" fill="#9be9a8"/><rect x="870" y="156" width="15" height="15" rx="3" fill="#9be9a8"/><rect x="870" y="174" width="15" height="15" rx="3" fill="#ebedf0"/><rect x="870" y="192" width="15" height="15" rx="3" fill="#ebedf0"/><rect x="870" y="210" width="15" height="15" rx="3" fill="#ebedf0"/><rect x="888" y="102" width="15" height="15" rx="3" fill="#ebedf0"/><rect x="888" y="120" width="15" height="15" rx="3" fill="#ebedf0"/><rect x="888" y="138" width="15" height="15" rx="3" fill="#ebedf0"/><rect x="888" y="156" width="15" height="15" rx="3" fill="#ebedf0"/><rect x="888" y="174" width="15" height="15" rx="3" fill="#ebedf0"/><rect x="888" y="192" width="15" height="15" rx="3" fill="#ebedf0"/><rect x="888" y="210" width="15" height="15" rx="3" fill="#ebedf0"/><rect x="906" y="102" width="15" height="15" rx="3" fill="#ebedf0"/><rect x="906" y="120" width="15" height="15" rx="3" fill="#ebedf0"/><rect x="906" y="138" width="15" height="15" rx="3" fill="#9be9a8"/><rect x="906" y="156" width="15" height="15" rx="3" fill="#9be9a8"/><rect x="906" y="174" width="15" height="15" rx="3" fill="#9be9a8"/><rect x="906" y="192" width="15" height="15" rx="3" fill="#ebedf0"/><rect x="906" y="210" width="15" height="15" rx="3" fill="#ebedf0"/><rect x="924" y="102" width="15" height="15" rx="3" fill="#ebedf0"/><rect x="924" y="120" width="15" height="15" rx="3" fill="#ebedf0"/><rect x="924" y="138" width="15" height="15" rx="3" fill="#ebedf0"/><rect x="924" y="156" width="15" height="15" rx="3" fill="#ebedf0"/><rect x="924" y="174" width="15" height="15" rx="3" fill="#ebedf0"/><rect x="924" y="192" width="15" height="15" rx="3" fill="#ebedf0"/><rect x="924" y="210" width="15" height="15" rx="3" fill="#ebedf0"/><rect x="942" y="102" width="15" height="15" rx="3" fill="#ebedf0"/><rect x="942" y="120" width="15" height="15" rx="3" fill="#ebedf0"/><rect x="942" y="138" width="15" height="15" rx="3" fill="#ebedf0"/><rect x="942" y="156" width="15" height="15" rx="3" fill="#ebedf0"/><rect x="942" y="174" width="15" height="15" rx="3" fill="#216e39"/><rect x="942" y="192" width="15" height="15" rx="3" fill="#9be9a8"/><rect x="942" y="210" width="15" height="15" rx="3" fill="#ebedf0"/><rect x="960" y="102" width="15" height="15" rx="3" fill="#ebedf0"/><rect x="960" y="120" width="15" height="15" rx="3" fill="#ebedf0"/><rect x="960" y="138" width="15" height="15" rx="3" fill="#ebedf0"/><rect x="960" y="156" width="15" height="15" rx="3" fill="#ebedf0"/><rect x="960" y="174" width="15" height="15" rx="3" fill="#ebedf0"/><rect x="960" y="192" width="15" height="15" rx="3" fill="#ebedf0"/><rect x="960" y="210" width="15" height="15" rx="3" fill="#ebedf0"/><rect x="978" y="102" width="15" height="15" rx="3" fill="#216e39"/><rect x="978" y="120" width="15" height="15" rx="3" fill="#216e39"/><rect x="978" y="138" width="15" height="15" rx="3" fill="#40c463"/><rect x="978" y="156" width="15" height="15" rx="3" fill="#216e39"/><rect x="978" y="174" width="15" height="15" rx="3" fill="#9be9a8"/><rect x="978" y="192" width="15" height="15" rx="3" fill="#ffffff" stroke="#d0d7de" stroke-opacity=".35"/><rect x="978" y="210" width="15" height="15" rx="3" fill="#ffffff" stroke="#d0d7de" stroke-opacity=".35"/><text x="22" y="250" fill="#656d76" font-family="Arial,sans-serif" font-size="10">Less</text><rect x="62" y="241" width="12" height="12" rx="3" fill="#ebedf0"/><rect x="80" y="241" width="12" height="12" rx="3" fill="#9be9a8"/><rect x="98" y="241" width="12" height="12" rx="3" fill="#40c463"/><rect x="116" y="241" width="12" height="12" rx="3" fill="#30a14e"/><rect x="134" y="241" width="12" height="12" rx="3" fill="#216e39"/><text x="160" y="250" fill="#656d76" font-family="Arial,sans-serif" font-size="10">More</text><text x="22" y="300" fill="#656d76" font-family="Arial,sans-serif" font-size="10">575 contributions in the past 12 months • current streak 5 days • longest streak 6 days</text><text x="1078" y="340" text-anchor="end" fill="#656d76" font-family="monospace" font-size="9">REFRESHED 2026-09-24</text></svg>